<?xml version="1.0" encoding="UTF-8" standalone="no"?>
<!-- Created with Inkscape (http://www.inkscape.org/) -->

<svg
   xmlns:dc="http://purl.org/dc/elements/1.1/"
   xmlns:cc="http://creativecommons.org/ns#"
   xmlns:rdf="http://www.w3.org/1999/02/22-rdf-syntax-ns#"
   xmlns:svg="http://www.w3.org/2000/svg"
   xmlns="http://www.w3.org/2000/svg"
   version="1.1"
   width="892.91339"
   height="206.5748"
   id="svg4686">
  <defs
     id="defs4688" />
  <metadata
     id="metadata4691">
    <rdf:RDF>
      <cc:Work
         rdf:about="">
        <dc:format>image/svg+xml</dc:format>
        <dc:type
           rdf:resource="http://purl.org/dc/dcmitype/StillImage" />
        <dc:title></dc:title>
      </cc:Work>
    </rdf:RDF>
  </metadata>
  <g
     transform="translate(52.826546,-428.18847)"
     id="layer1">
    <g
       transform="matrix(7.2138051,0,0,7.2138051,-14425.587,-6606.6206)"
       id="g4803">
      <g
         transform="matrix(1.25,0,0,-1.25,2007.8252,978.09166)"
         id="g3149">
        <path
           d="m 0,0 4.974,0 0,-1.989 -2.066,0 5.432,-14.001 1.607,0 0,-2.065 -6.733,0 0,2.008 -1.891,0 0,-3.942 10.628,0 0,5.855 -2.386,0.013 -3.827,10.198 1.203,0 0,5.856 -6.941,0 -6.939,0 0,-5.856 1.201,0 -3.826,-10.184 -2.386,-0.027 0,-5.855 10.627,0 0,3.942 -1.89,0 0,-2.008 -6.732,0 0,2.065 1.607,0 5.431,14.001 -2.065,0 0,1.989 L 0,0 z"
           id="path3151"
           style="fill:#003e7e;fill-opacity:1;fill-rule:nonzero;stroke:none" />
      </g>
      <g
         transform="matrix(1.25,0,0,-1.25,2007.8252,978.09166)"
         id="g3157">
        <path
           d="m 0,0 5.509,-14.308 c 0,0 0.708,-1.74 1.855,-1.74 l -4.016,0 c 0,0 0.201,-0.028 0.401,0.306 0.115,0.191 0.02,0.477 0.02,0.477 l -1.243,3.195 -2.526,0 -2.524,0 -1.243,-3.195 c 0,0 -0.096,-0.286 0.018,-0.477 0.201,-0.334 0.402,-0.306 0.402,-0.306 l -4.017,0 c 1.148,0 1.855,1.74 1.855,1.74 L 0,0"
           id="path3159"
           style="fill:#d31245;fill-opacity:1;fill-rule:nonzero;stroke:none" />
      </g>
      <g
         transform="matrix(1.25,0,0,-1.25,2007.8687,991.29004)"
         id="g3161">
        <path
           d="M 0,0 1.932,0 0.039,5.011 -1.932,0 0,0 z"
           id="path3163"
           style="fill:#ffffff;fill-opacity:1;fill-rule:nonzero;stroke:none" />
      </g>
      <g
         transform="matrix(1.25,0,0,-1.25,2027.1214,987.60091)"
         id="g3165">
        <path
           d="M 0,0 C 0,-0.384 0.034,-0.669 0.103,-0.854 0.17,-1.037 0.285,-1.203 0.444,-1.35 l -2.056,0 c 0.161,0.147 0.277,0.313 0.343,0.496 0.068,0.185 0.101,0.47 0.101,0.854 l 0,5.435 -0.606,0 C -2.19,5.435 -2.528,5.402 -2.786,5.337 -3.045,5.271 -3.252,5.166 -3.406,5.02 l 0.371,1.25 5.355,0 L 1.969,5.042 C 1.858,5.176 1.711,5.276 1.53,5.339 1.347,5.403 1.119,5.435 0.843,5.435 L 0,5.435 0,0 z"
           id="path3167"
           style="fill:#003e7e;fill-opacity:1;fill-rule:nonzero;stroke:none" />
      </g>
      <g
         transform="matrix(1.25,0,0,-1.25,2032.2039,987.79578)"
         id="g3169">
        <path
           d="m 0,0 c 0,-0.341 0.031,-0.596 0.089,-0.761 0.06,-0.164 0.162,-0.312 0.305,-0.442 l -1.835,0 c 0.14,0.13 0.241,0.278 0.302,0.442 0.06,0.165 0.092,0.42 0.092,0.761 l 0,4.4 c 0,0.343 -0.032,0.596 -0.092,0.76 -0.061,0.163 -0.162,0.308 -0.302,0.435 l 1.835,0 C 0.251,5.468 0.149,5.323 0.089,5.16 0.031,4.996 0,4.743 0,4.4 l 0,-1.522 3.604,0 0,1.522 c 0,0.343 -0.031,0.596 -0.09,0.76 C 3.455,5.323 3.353,5.468 3.209,5.595 l 1.835,0 C 4.903,5.468 4.803,5.323 4.743,5.16 4.682,4.996 4.651,4.743 4.651,4.4 l 0,-4.4 c 0,-0.341 0.029,-0.596 0.089,-0.761 0.059,-0.164 0.162,-0.312 0.304,-0.442 l -1.835,0 c 0.144,0.13 0.246,0.278 0.305,0.442 0.059,0.165 0.09,0.42 0.09,0.761 l 0,2.094 L 0,2.094 0,0 z"
           id="path3171"
           style="fill:#003e7e;fill-opacity:1;fill-rule:nonzero;stroke:none" />
      </g>
      <g
         transform="matrix(1.25,0,0,-1.25,2039.6223,989.29954)"
         id="g3173">
        <path
           d="m 0,0 c 0.141,0.13 0.241,0.278 0.302,0.442 0.061,0.165 0.091,0.42 0.091,0.762 l 0,4.395 c 0,0.344 -0.03,0.598 -0.091,0.762 C 0.241,6.525 0.141,6.67 0,6.798 l 3.664,0 0,-1.073 C 3.501,5.858 3.32,5.953 3.124,6.012 2.929,6.071 2.702,6.101 2.447,6.101 2.314,6.101 2.166,6.091 2.004,6.069 1.839,6.048 1.656,6.015 1.45,5.972 l 0,-1.915 1.643,0 0,-0.988 C 3.015,3.161 2.91,3.226 2.779,3.264 2.647,3.301 2.405,3.321 2.055,3.321 l -0.605,0 0,-2.438 C 1.704,0.845 1.933,0.816 2.139,0.797 c 0.206,-0.02 0.383,-0.03 0.534,-0.03 0.341,0 0.662,0.046 0.963,0.138 0.302,0.093 0.6,0.235 0.892,0.425 L 4.06,0 0,0 z"
           id="path3175"
           style="fill:#003e7e;fill-opacity:1;fill-rule:nonzero;stroke:none" />
      </g>
      <g
         transform="matrix(1.25,0,0,-1.25,2055.967,989.28466)"
         id="g3177">
        <path
           d="m 0,0 0,0.574 c -0.366,-0.265 -0.733,-0.463 -1.102,-0.593 -0.372,-0.13 -0.749,-0.197 -1.129,-0.197 -0.434,0 -0.822,0.074 -1.162,0.219 -0.34,0.145 -0.635,0.363 -0.882,0.655 -0.193,0.229 -0.332,0.496 -0.416,0.8 -0.085,0.304 -0.127,0.712 -0.127,1.225 l 0,3.567 c 0,0.382 -0.034,0.665 -0.098,0.846 -0.068,0.183 -0.179,0.345 -0.337,0.487 l 2.039,0 C -3.371,7.441 -3.483,7.279 -3.548,7.096 -3.615,6.915 -3.646,6.632 -3.646,6.25 l 0,-3.332 c 0,-0.52 0.024,-0.907 0.073,-1.158 0.05,-0.251 0.136,-0.452 0.254,-0.601 0.142,-0.178 0.332,-0.312 0.572,-0.402 0.237,-0.089 0.52,-0.133 0.851,-0.133 0.271,0 0.531,0.041 0.767,0.124 0.237,0.08 0.444,0.2 0.623,0.357 0.158,0.13 0.27,0.301 0.34,0.51 0.066,0.21 0.101,0.494 0.101,0.855 l 0,3.78 c 0,0.397 -0.033,0.684 -0.098,0.861 -0.066,0.176 -0.177,0.333 -0.336,0.472 l 2.055,0 C 1.396,7.444 1.283,7.279 1.215,7.085 1.147,6.893 1.113,6.614 1.113,6.25 l 0,-4.91 C 1.113,0.958 1.147,0.676 1.215,0.493 1.283,0.309 1.396,0.145 1.556,0 L 0,0 z"
           id="path3179"
           style="fill:#003e7e;fill-opacity:1;fill-rule:nonzero;stroke:none" />
      </g>
      <g
         transform="matrix(1.25,0,0,-1.25,2067.2335,980.80141)"
         id="g3181">
        <path
           d="m 0,0 c -0.145,-0.127 -0.247,-0.272 -0.305,-0.436 -0.06,-0.163 -0.089,-0.416 -0.089,-0.758 l 0,-5.763 c -0.233,0.008 -0.456,0.084 -0.666,0.231 -0.21,0.147 -0.473,0.427 -0.79,0.838 l -3.457,4.425 0,-4.131 c 0,-0.356 0.029,-0.614 0.087,-0.775 0.057,-0.159 0.157,-0.303 0.299,-0.429 l -1.52,0 c 0.142,0.129 0.243,0.277 0.303,0.442 0.061,0.165 0.091,0.419 0.091,0.762 l 0,4.4 c 0,0.342 -0.03,0.595 -0.091,0.758 -0.06,0.164 -0.161,0.309 -0.303,0.436 l 1.36,0 3.962,-5.105 0,3.911 c 0,0.342 -0.031,0.595 -0.09,0.758 C -1.271,-0.272 -1.371,-0.127 -1.512,0 L 0,0 z"
           id="path3183"
           style="fill:#003e7e;fill-opacity:1;fill-rule:nonzero;stroke:none" />
      </g>
      <g
         transform="matrix(1.25,0,0,-1.25,2070.4057,987.79404)"
         id="g3185">
        <path
           d="m 0,0 c 0,-0.343 0.029,-0.597 0.089,-0.762 0.059,-0.164 0.16,-0.313 0.304,-0.442 l -1.836,0 c 0.145,0.129 0.246,0.278 0.306,0.442 0.058,0.165 0.088,0.419 0.088,0.762 l 0,4.4 c 0,0.343 -0.03,0.595 -0.088,0.758 -0.06,0.164 -0.161,0.309 -0.306,0.436 l 1.836,0 C 0.249,5.467 0.148,5.322 0.089,5.158 0.029,4.995 0,4.743 0,4.4 L 0,0 z"
           id="path3187"
           style="fill:#003e7e;fill-opacity:1;fill-rule:nonzero;stroke:none" />
      </g>
      <g
         transform="matrix(1.25,0,0,-1.25,2075.7557,989.51554)"
         id="g3189">
        <path
           d="m 0,0 c -0.285,0.075 -0.53,0.239 -0.731,0.493 -0.203,0.252 -0.39,0.63 -0.561,1.132 l -1.355,3.96 c -0.11,0.328 -0.214,0.594 -0.311,0.799 -0.097,0.206 -0.209,0.402 -0.329,0.587 l 1.384,-0.004 c 0.006,-0.111 0.016,-0.215 0.035,-0.309 0.014,-0.095 0.034,-0.185 0.061,-0.27 l 1.63,-4.865 1.542,4.053 C 1.41,5.7 1.446,5.825 1.474,5.951 1.5,6.075 1.515,6.191 1.515,6.296 1.515,6.387 1.487,6.484 1.437,6.587 1.385,6.69 1.3,6.818 1.177,6.971 l 1.535,0 L 0,0 z"
           id="path3191"
           style="fill:#003e7e;fill-opacity:1;fill-rule:nonzero;stroke:none" />
      </g>
      <g
         transform="matrix(1.25,0,0,-1.25,2079.7298,989.29954)"
         id="g3193">
        <path
           d="m 0,0 c 0.141,0.13 0.243,0.278 0.303,0.442 0.061,0.165 0.092,0.42 0.092,0.762 l 0,4.395 C 0.395,5.943 0.364,6.197 0.303,6.361 0.243,6.525 0.141,6.67 0,6.798 l 3.664,0 0,-1.073 C 3.501,5.858 3.322,5.953 3.126,6.012 2.929,6.071 2.704,6.101 2.446,6.101 2.316,6.101 2.167,6.091 2.006,6.069 1.84,6.048 1.655,6.015 1.451,5.972 l 0,-1.915 1.643,0 0,-0.988 C 3.017,3.161 2.911,3.226 2.779,3.264 2.647,3.301 2.406,3.321 2.055,3.321 l -0.604,0 0,-2.438 C 1.706,0.845 1.934,0.816 2.14,0.797 c 0.206,-0.02 0.383,-0.03 0.535,-0.03 0.339,0 0.66,0.046 0.961,0.138 0.302,0.093 0.6,0.235 0.893,0.425 L 4.061,0 0,0 z"
           id="path3195"
           style="fill:#003e7e;fill-opacity:1;fill-rule:nonzero;stroke:none" />
      </g>
      <g
         transform="matrix(1.25,0,0,-1.25,2087.7742,987.79578)"
         id="g3197">
        <path
           d="m 0,0 c 0,-0.341 0.029,-0.596 0.09,-0.761 0.058,-0.164 0.159,-0.312 0.303,-0.442 l -1.836,0 c 0.141,0.13 0.242,0.278 0.303,0.442 0.061,0.165 0.091,0.42 0.091,0.761 l 0,4.399 c 0,0.343 -0.03,0.596 -0.091,0.76 -0.061,0.164 -0.162,0.309 -0.303,0.436 l 2.319,0 c 0.66,0 1.194,-0.16 1.599,-0.479 C 2.881,4.795 3.086,4.379 3.086,3.867 3.086,3.495 2.964,3.166 2.719,2.883 2.474,2.598 2.095,2.349 1.581,2.133 l 1.74,-2.353 c 0.102,-0.14 0.227,-0.29 0.37,-0.445 0.145,-0.158 0.311,-0.32 0.496,-0.49 l -0.519,-0.048 -0.083,0 c -0.243,0 -0.48,0.064 -0.713,0.196 -0.231,0.129 -0.427,0.31 -0.587,0.537 L 0.293,2.321 C 0.887,2.455 1.318,2.64 1.594,2.873 1.868,3.106 2.005,3.407 2.005,3.777 2.005,4.12 1.889,4.399 1.652,4.614 1.417,4.83 1.108,4.938 0.727,4.938 0.64,4.938 0.536,4.93 0.413,4.916 0.292,4.901 0.154,4.879 0,4.849 L 0,0 z"
           id="path3199"
           style="fill:#003e7e;fill-opacity:1;fill-rule:nonzero;stroke:none" />
      </g>
      <g
         transform="matrix(1.25,0,0,-1.25,2093.4147,989.10979)"
         id="g3201">
        <path
           d="M 0,0 -0.318,1.234 C 0.07,0.97 0.448,0.773 0.812,0.645 1.179,0.516 1.542,0.451 1.901,0.451 c 0.459,0 0.828,0.1 1.108,0.301 0.278,0.201 0.418,0.461 0.418,0.781 0,0.091 -0.015,0.183 -0.044,0.274 C 3.355,1.899 3.315,1.985 3.258,2.066 3.137,2.252 2.728,2.519 2.031,2.864 1.856,2.949 1.719,3.017 1.622,3.065 0.971,3.398 0.523,3.706 0.282,3.986 0.038,4.266 -0.082,4.6 -0.082,4.985 -0.082,5.537 0.141,5.976 0.583,6.3 1.026,6.625 1.635,6.788 2.405,6.788 2.627,6.788 2.87,6.773 3.137,6.743 3.404,6.714 3.693,6.669 4.006,6.606 l 0,-1.142 C 3.73,5.678 3.452,5.836 3.172,5.941 2.892,6.046 2.602,6.098 2.3,6.098 1.918,6.098 1.611,6.015 1.377,5.848 1.145,5.682 1.028,5.464 1.028,5.197 1.028,4.958 1.12,4.747 1.304,4.564 1.485,4.381 1.895,4.136 2.532,3.829 2.569,3.812 2.624,3.787 2.698,3.751 3.236,3.5 3.639,3.267 3.907,3.055 4.104,2.899 4.26,2.708 4.371,2.483 4.483,2.258 4.537,2.018 4.537,1.762 4.537,1.178 4.275,0.683 3.747,0.276 3.221,-0.13 2.563,-0.333 1.773,-0.333 1.519,-0.333 1.247,-0.304 0.954,-0.25 0.66,-0.194 0.344,-0.111 0,0"
           id="path3203"
           style="fill:#003e7e;fill-opacity:1;fill-rule:nonzero;stroke:none" />
      </g>
      <g
         transform="matrix(1.25,0,0,-1.25,2102.0259,987.79404)"
         id="g3205">
        <path
           d="m 0,0 c 0,-0.343 0.03,-0.597 0.09,-0.762 0.059,-0.164 0.16,-0.313 0.305,-0.442 l -1.837,0 c 0.144,0.129 0.246,0.278 0.305,0.442 0.059,0.165 0.089,0.419 0.089,0.762 l 0,4.4 c 0,0.343 -0.03,0.595 -0.089,0.758 -0.059,0.164 -0.161,0.309 -0.305,0.436 l 1.837,0 C 0.25,5.467 0.149,5.322 0.09,5.158 0.03,4.995 0,4.743 0,4.4 L 0,0 z"
           id="path3207"
           style="fill:#003e7e;fill-opacity:1;fill-rule:nonzero;stroke:none" />
      </g>
      <g
         transform="matrix(1.25,0,0,-1.25,2054.9955,995.09053)"
         id="g3209">
        <path
           d="m 0,0 -1.109,-2.83 2.194,0 L 0,0 z m 0.128,2.432 0.605,-1.476 2.3,-5.761 c 0.254,-0.639 0.453,-1.269 1.082,-1.59 l 0,-0.035 -2.266,0 0,0.035 c 0.542,0.244 0.453,0.367 0.156,1.151 l -0.597,1.584 -2.806,0 -0.575,-1.584 c -0.233,-0.628 -0.31,-0.951 0.221,-1.151 l 0,-0.035 -2.034,0 0,0.035 c 0.64,0.321 0.83,0.951 1.071,1.59 l 2.843,7.191 0,0.046 z"
           id="path3211"
           style="fill:#003e7e;fill-opacity:1;fill-rule:nonzero;stroke:none" />
      </g>
      <g
         transform="matrix(1.25,0,0,-1.25,2037.4009,995.33966)"
         id="g3213">
        <path
           d="m 0,0 c -0.744,0 -1.36,-0.26 -1.843,-0.778 -0.484,-0.519 -0.726,-1.182 -0.726,-1.988 0,-0.833 0.24,-1.523 0.719,-2.074 0.478,-0.55 1.076,-0.824 1.793,-0.824 0.742,0 1.355,0.259 1.84,0.78 0.481,0.521 0.722,1.185 0.722,1.995 0,0.834 -0.238,1.522 -0.717,2.068 C 1.309,-0.272 0.713,0 0,0 m -0.036,-6.396 c -0.513,0 -0.993,0.083 -1.445,0.249 -0.451,0.166 -0.839,0.402 -1.163,0.711 -0.342,0.326 -0.604,0.712 -0.79,1.153 -0.184,0.444 -0.276,0.908 -0.276,1.394 0,0.382 0.059,0.753 0.176,1.112 0.118,0.358 0.289,0.695 0.514,1.005 0.349,0.479 0.782,0.848 1.298,1.105 0.515,0.259 1.078,0.387 1.686,0.387 0.519,0 1.007,-0.082 1.457,-0.247 C 1.874,0.309 2.261,0.071 2.585,-0.24 2.932,-0.567 3.197,-0.952 3.38,-1.398 3.564,-1.843 3.656,-2.324 3.656,-2.839 3.656,-3.313 3.552,-3.776 3.348,-4.232 3.141,-4.686 2.852,-5.086 2.479,-5.436 2.145,-5.752 1.763,-5.99 1.336,-6.152 0.909,-6.314 0.452,-6.396 -0.036,-6.396"
           id="path3215"
           style="fill:#003e7e;fill-opacity:1;fill-rule:nonzero;stroke:none" />
      </g>
      <g
         transform="matrix(1.25,0,0,-1.25,2044.4718,1001.6292)"
         id="g3217">
        <path
           d="M 0,0 C 0,-0.344 0.028,-0.596 0.088,-0.761 0.148,-0.923 0.25,-1.071 0.395,-1.2 l -1.837,0 c 0.142,0.129 0.243,0.277 0.303,0.439 0.06,0.165 0.091,0.417 0.091,0.761 l 0,4.395 c 0,0.344 -0.031,0.598 -0.091,0.763 -0.06,0.163 -0.161,0.309 -0.303,0.437 l 3.669,0 0,-1.073 C 2.064,4.655 1.885,4.75 1.689,4.81 1.494,4.869 1.266,4.898 1.007,4.898 0.874,4.898 0.727,4.887 0.562,4.866 0.398,4.845 0.214,4.812 0.008,4.768 l 0,-1.914 1.649,0 0,-0.987 C 1.58,1.958 1.475,2.024 1.342,2.061 1.209,2.099 0.965,2.117 0.612,2.117 L 0,2.117 0,0 z"
           id="path3219"
           style="fill:#003e7e;fill-opacity:1;fill-rule:nonzero;stroke:none" />
      </g>
      <g
         transform="matrix(1.25,0,0,-1.25,2062.5567,1001.6315)"
         id="g3221">
        <path
           d="m 0,0 c 0,-0.342 0.03,-0.595 0.09,-0.759 0.059,-0.162 0.16,-0.31 0.304,-0.439 l -1.836,0 c 0.141,0.129 0.243,0.277 0.303,0.439 0.061,0.164 0.091,0.417 0.091,0.759 l 0,4.401 c 0,0.344 -0.03,0.596 -0.091,0.761 -0.06,0.162 -0.162,0.308 -0.303,0.435 l 2.318,0 C 1.537,5.597 2.07,5.438 2.477,5.118 2.882,4.798 3.085,4.381 3.085,3.869 3.085,3.497 2.965,3.169 2.72,2.884 2.475,2.6 2.096,2.351 1.582,2.136 L 3.321,-0.219 C 3.424,-0.36 3.547,-0.508 3.693,-0.664 3.837,-0.819 4.001,-0.982 4.188,-1.15 l -0.52,-0.048 -0.082,0 c -0.244,0 -0.481,0.064 -0.712,0.194 -0.232,0.129 -0.428,0.309 -0.588,0.534 L 0.293,2.323 C 0.886,2.458 1.32,2.64 1.594,2.874 1.867,3.108 2.006,3.409 2.006,3.778 2.006,4.121 1.888,4.401 1.652,4.616 1.418,4.831 1.109,4.94 0.727,4.94 0.64,4.94 0.535,4.931 0.414,4.917 0.293,4.903 0.154,4.88 0,4.851 L 0,0 z"
           id="path3223"
           style="fill:#003e7e;fill-opacity:1;fill-rule:nonzero;stroke:none" />
      </g>
      <g
         transform="matrix(1.25,0,0,-1.25,2070.312,1001.6292)"
         id="g3225">
        <path
           d="M 0,0 C 0,-0.344 0.028,-0.597 0.088,-0.761 0.146,-0.923 0.249,-1.071 0.393,-1.2 l -1.836,0 c 0.143,0.129 0.245,0.277 0.304,0.439 0.059,0.164 0.089,0.417 0.089,0.761 l 0,4.401 c 0,0.344 -0.03,0.595 -0.089,0.759 -0.059,0.162 -0.161,0.309 -0.304,0.435 l 1.836,0 C 0.249,5.469 0.146,5.322 0.088,5.16 0.028,4.996 0,4.745 0,4.401 L 0,0 z"
           id="path3227"
           style="fill:#003e7e;fill-opacity:1;fill-rule:nonzero;stroke:none" />
      </g>
      <g
         transform="matrix(1.25,0,0,-1.25,2078.8008,1001.54)"
         id="g3229">
        <path
           d="m 0,0 -0.487,-1.272 -5.222,0 3.564,5.921 c -0.266,0.068 -0.518,0.119 -0.754,0.152 -0.236,0.033 -0.455,0.05 -0.658,0.05 -0.295,0 -0.581,-0.037 -0.855,-0.112 -0.275,-0.073 -0.554,-0.19 -0.841,-0.351 l 0.462,1.135 4.342,0 -3.56,-5.918 c 0.395,-0.046 0.726,-0.079 0.998,-0.099 0.268,-0.02 0.502,-0.031 0.698,-0.031 0.462,0 0.886,0.044 1.267,0.132 C -0.665,-0.305 -0.316,-0.175 0,0"
           id="path3231"
           style="fill:#003e7e;fill-opacity:1;fill-rule:nonzero;stroke:none" />
      </g>
      <g
         transform="matrix(1.25,0,0,-1.25,2083.6675,995.33966)"
         id="g3233">
        <path
           d="M 0,0 C -0.746,0 -1.362,-0.26 -1.845,-0.778 -2.327,-1.297 -2.57,-1.96 -2.57,-2.766 c 0,-0.833 0.241,-1.523 0.719,-2.074 0.478,-0.55 1.076,-0.824 1.792,-0.824 0.743,0 1.355,0.259 1.84,0.78 0.482,0.521 0.724,1.185 0.724,1.995 0,0.834 -0.239,1.522 -0.717,2.068 C 1.309,-0.272 0.713,0 0,0 m -0.037,-6.396 c -0.512,0 -0.992,0.083 -1.444,0.249 -0.452,0.166 -0.84,0.402 -1.165,0.711 -0.34,0.326 -0.603,0.712 -0.788,1.153 -0.184,0.444 -0.276,0.908 -0.276,1.394 0,0.382 0.057,0.753 0.176,1.112 0.115,0.358 0.287,0.695 0.512,1.005 0.351,0.479 0.786,0.848 1.3,1.105 0.515,0.259 1.077,0.387 1.685,0.387 C 0.484,0.72 0.969,0.638 1.42,0.473 1.872,0.309 2.26,0.071 2.585,-0.24 2.932,-0.567 3.196,-0.952 3.38,-1.398 3.563,-1.843 3.655,-2.324 3.655,-2.839 3.655,-3.313 3.552,-3.776 3.346,-4.232 3.141,-4.686 2.85,-5.086 2.479,-5.436 2.145,-5.752 1.763,-5.99 1.336,-6.152 0.909,-6.314 0.45,-6.396 -0.037,-6.396"
           id="path3235"
           style="fill:#003e7e;fill-opacity:1;fill-rule:nonzero;stroke:none" />
      </g>
      <g
         transform="matrix(1.25,0,0,-1.25,2096.9662,994.63578)"
         id="g3237">
        <path
           d="M 0,0 C -0.145,-0.126 -0.247,-0.272 -0.305,-0.435 -0.366,-0.599 -0.394,-0.85 -0.394,-1.194 l 0,-5.757 c -0.235,0.007 -0.456,0.083 -0.666,0.228 -0.211,0.147 -0.473,0.424 -0.79,0.834 l -3.457,4.426 0,-4.132 c 0,-0.356 0.029,-0.614 0.087,-0.772 0.057,-0.158 0.156,-0.302 0.298,-0.428 l -1.518,0 c 0.14,0.129 0.24,0.277 0.301,0.44 0.062,0.163 0.093,0.416 0.093,0.76 l 0,4.401 c 0,0.344 -0.031,0.595 -0.093,0.759 C -6.2,-0.272 -6.3,-0.126 -6.44,0 l 1.357,0 3.965,-5.105 0,3.911 c 0,0.344 -0.032,0.595 -0.092,0.759 C -1.272,-0.272 -1.372,-0.126 -1.513,0 L 0,0 z"
           id="path3239"
           style="fill:#003e7e;fill-opacity:1;fill-rule:nonzero;stroke:none" />
      </g>
      <g
         transform="matrix(1.25,0,0,-1.25,2100.0537,999.09903)"
         id="g3241">
        <path
           d="M 0,0 1.974,0 1.027,2.627 0,0 z m -0.905,-2.308 c -0.031,-0.069 -0.053,-0.14 -0.067,-0.213 -0.013,-0.073 -0.02,-0.149 -0.02,-0.226 0,-0.065 0.021,-0.137 0.068,-0.214 0.048,-0.078 0.122,-0.166 0.225,-0.263 l -1.581,0 c 0.131,0.09 0.25,0.214 0.354,0.374 0.104,0.16 0.211,0.376 0.321,0.654 L 0.28,2.656 c 0.038,0.092 0.067,0.181 0.086,0.269 0.02,0.088 0.029,0.167 0.029,0.234 0,0.08 -0.018,0.152 -0.054,0.216 C 0.303,3.441 0.242,3.506 0.159,3.571 l 1.524,0 2.131,-5.698 c 0.098,-0.258 0.206,-0.467 0.321,-0.628 0.116,-0.16 0.262,-0.318 0.441,-0.469 l -1.921,0 0.025,0.024 c 0.178,0.189 0.265,0.326 0.265,0.413 0,0.105 -0.038,0.256 -0.115,0.459 -0.011,0.033 -0.018,0.057 -0.024,0.074 l -0.574,1.572 -2.497,0 -0.64,-1.626 z"
           id="path3243"
           style="fill:#003e7e;fill-opacity:1;fill-rule:nonzero;stroke:none" />
      </g>
      <g
         transform="matrix(1.25,0,0,-1.25,2110.165,980.78828)"
         id="g3245">
        <path
           d="m 0,0 1.743,-2.964 1.172,1.93 c 0.072,0.118 0.126,0.225 0.163,0.321 0.036,0.097 0.055,0.179 0.055,0.249 0,0.078 -0.023,0.155 -0.07,0.231 C 3.016,-0.155 2.946,-0.078 2.848,0 l 1.567,0 -2.3,-3.742 0,-1.857 c 0,-0.343 0.03,-0.597 0.091,-0.762 0.062,-0.166 0.162,-0.313 0.303,-0.442 l -1.846,0 c 0.144,0.129 0.247,0.276 0.305,0.442 0.059,0.165 0.09,0.419 0.09,0.762 l 10e-4,1.876 -1.575,2.594 c -0.158,0.232 -0.275,0.267 -0.427,0.322 -0.163,0.057 -0.437,0.062 -0.685,0.062 l -0.752,0 0,-4.855 c 0,-0.342 0.03,-0.596 0.092,-0.761 0.061,-0.166 0.161,-0.313 0.304,-0.442 l -1.838,0 c 0.143,0.129 0.245,0.276 0.305,0.442 0.058,0.165 0.087,0.419 0.087,0.761 l 0,4.855 -0.537,0 c -0.373,0 -0.676,-0.028 -0.906,-0.088 -0.232,-0.058 -0.417,-0.153 -0.556,-0.284 L -5.095,0 0,0 z"
           id="path3247"
           style="fill:#003e7e;fill-opacity:1;fill-rule:nonzero;stroke:none" />
      </g>
      <g
         transform="matrix(1.25,0,0,-1.25,2024.7015,1001.7454)"
         id="g3249">
        <path
           d="M 0,0 0.24,0 C 0.323,0 0.384,0.015 0.422,0.044 0.461,0.074 0.48,0.121 0.48,0.184 0.48,0.239 0.461,0.281 0.422,0.307 0.384,0.333 0.323,0.346 0.24,0.346 L 0,0.346 0,0 z m -0.176,0.49 0.089,0 0.362,0 C 0.396,0.49 0.491,0.463 0.56,0.409 0.63,0.355 0.664,0.28 0.664,0.185 0.664,0.081 0.63,-0.001 0.56,-0.06 0.508,-0.104 0.442,-0.132 0.361,-0.143 l 0.324,-0.492 -0.103,0 -0.102,0 L 0.188,-0.149 0,-0.151 l 0,-0.484 -0.088,0 -0.088,0 0,1.125 z M 0.819,0.501 C 0.666,0.656 0.478,0.734 0.255,0.734 0.032,0.734 -0.156,0.656 -0.31,0.501 -0.464,0.344 -0.54,0.153 -0.54,-0.074 c 0,-0.226 0.076,-0.417 0.23,-0.574 0.154,-0.155 0.342,-0.233 0.565,-0.233 0.222,0 0.41,0.078 0.564,0.233 0.154,0.157 0.231,0.348 0.231,0.574 0,0.227 -0.076,0.418 -0.231,0.575 M 0.96,0.618 C 1.152,0.43 1.248,0.199 1.248,-0.074 c 0,-0.271 -0.096,-0.502 -0.287,-0.69 -0.192,-0.188 -0.428,-0.282 -0.706,-0.282 -0.279,0 -0.514,0.094 -0.706,0.282 -0.191,0.188 -0.287,0.419 -0.287,0.69 0,0.273 0.096,0.504 0.288,0.692 0.192,0.187 0.427,0.28 0.705,0.28 0.277,0 0.513,-0.093 0.705,-0.28"
           id="path3251"
           style="fill:#003e7e;fill-opacity:1;fill-rule:nonzero;stroke:none" />
      </g>
      <g
         transform="matrix(1.25,0,0,-1.25,2107.7117,1001.7752)"
         id="g3253">
        <path
           d="M 0,0 0.24,0 C 0.323,0 0.384,0.015 0.422,0.044 0.461,0.074 0.48,0.121 0.48,0.184 0.48,0.24 0.461,0.281 0.422,0.307 0.384,0.333 0.323,0.347 0.24,0.347 L 0,0.347 0,0 z m -0.176,0.49 0.088,0 0.362,0 C 0.396,0.49 0.491,0.463 0.56,0.409 0.63,0.355 0.664,0.281 0.664,0.185 0.664,0.081 0.63,-0.001 0.56,-0.06 0.508,-0.104 0.442,-0.132 0.361,-0.143 l 0.324,-0.492 -0.103,0 -0.103,0 L 0.188,-0.149 0,-0.15 l 0,-0.485 -0.088,0 -0.088,0 0,1.125 z M 0.82,0.501 C 0.666,0.656 0.478,0.734 0.255,0.734 0.032,0.734 -0.156,0.656 -0.31,0.501 -0.464,0.345 -0.54,0.153 -0.54,-0.073 c 0,-0.227 0.076,-0.418 0.23,-0.574 0.154,-0.156 0.342,-0.234 0.565,-0.234 0.222,0 0.41,0.078 0.564,0.234 0.154,0.156 0.231,0.347 0.231,0.574 0,0.226 -0.076,0.418 -0.23,0.574 M 0.959,0.618 C 1.152,0.43 1.248,0.2 1.248,-0.073 1.248,-0.345 1.152,-0.575 0.961,-0.764 0.769,-0.952 0.533,-1.046 0.255,-1.046 c -0.279,0 -0.514,0.094 -0.706,0.282 -0.191,0.189 -0.288,0.419 -0.288,0.691 0,0.273 0.097,0.503 0.288,0.691 0.193,0.187 0.428,0.28 0.706,0.28 0.277,0 0.513,-0.093 0.704,-0.28"
           id="path3255"
           style="fill:#003e7e;fill-opacity:1;fill-rule:nonzero;stroke:none" />
      </g>
    </g>
  </g>
</svg>
